# xmcd
#
# Track frame offsets: 
#        150
#        15574
#        32029
#        48801
#        63193
#        85380
#        100040
#        118232
#        136114
#        151747
#        168283
#        182805
#        199561
#        215891
#        231341
#        246328
#        265960
#        281530
#
# Disc length: 3934 seconds
#
# Revision: 0
# Processed by: cddbd v1.5.2PL0 Copyright (c) Steve Scherf et al.
# Submitted via: ExactAudioCopy v0.99pb4
#
DISCID=f60f5c12
DTITLE=De Kreuners - 30 - CD 1
DYEAR=2008
DGENRE=Pop
TTITLE0=Nummer Eén
TTITLE1=Nee Oh Nee
TTITLE2=Zij Heeft Stijl
TTITLE3=Gezellig Samenzijn
TTITLE4=Layla
TTITLE5=Cous-Cous Kreten
TTITLE6=Het Regent Meer Dan Vroeger
TTITLE7=Ik Dans Wel Met Mezelf
TTITLE8=Kom Terug, Ik Mis Je
TTITLE9=Nu Of Nooit
TTITLE10=Zo Jong
TTITLE11=Maak Me Wakker
TTITLE12=Verliefd Op Chris Lomme
TTITLE13=Ik Wil Je
TTITLE14=Hetzelfde Lied
TTITLE15=Er Komt Een Tijd
TTITLE16=Ja!
TTITLE17=Meisje Meisje
EXTD=
EXTT0=
EXTT1=
EXTT2=
EXTT3=
EXTT4=
EXTT5=
EXTT6=
EXTT7=
EXTT8=
EXTT9=
EXTT10=
EXTT11=
EXTT12=
EXTT13=
EXTT14=
EXTT15=
EXTT16=
EXTT17=
PLAYORDER=
